<svg xmlns="http://www.w3.org/2000/svg" xmlns:xlink="http://www.w3.org/1999/xlink" width="198" height="18" viewBox="0 0 198 18">
    <defs>
        <path id="2kx1fk9jra" d="M0 0.112L20.913 0.112 20.913 18 0 18z"/>
        <path id="wva6cymjoc" d="M0.045 0.095L7.966 0.095 7.966 16.894 0.045 16.894z"/>
    </defs>
    <g fill="none" fill-rule="evenodd">
        <g>
            <g>
                <g>
                    <g transform="translate(-1077.000000, -3145.000000) translate(0.000000, 3067.000000) translate(1077.000000, 78.000000)">
                        <mask id="gkgpiall2b" fill="#fff">
                            <use xlink:href="#2kx1fk9jra"/>
                        </mask>
                        <path fill="#FEFEFE" d="M11.544.112c.464 0 .938.023 1.421.07.484.048.919.11 1.306.189.406.078.792.173 1.16.282.367.11.706.22 1.015.33.31.11.595.204.856.282.26.079.507.118.74.118.173 0 .338-.024.493-.07.154-.048.338-.126.55-.236V6.16c-.502-.314-1-.616-1.493-.906-.493-.29-1.006-.545-1.537-.765-.533-.22-1.093-.396-1.683-.53-.59-.133-1.232-.2-1.929-.2-.754 0-1.489.13-2.204.389-.716.258-1.349.623-1.9 1.094-.551.47-.991 1.032-1.32 1.683-.329.651-.493 1.361-.493 2.13 0 .8.15 1.53.45 2.189.3.659.71 1.216 1.233 1.671.522.455 1.14.808 1.856 1.06.715.25 1.489.376 2.32.376.193 0 .396-.016.61-.047.212-.032.415-.07.609-.118v-2.4c0-.315-.063-.628-.189-.942-.126-.314-.324-.596-.595-.848h8.093c-.271.252-.47.534-.595.848-.126.314-.188.627-.188.941v4.355C17.364 17.38 14.6 18 11.834 18c-1.798 0-3.427-.212-4.887-.636-1.46-.423-2.703-1.023-3.727-1.8C2.194 14.787 1.402 13.85.84 12.75.281 11.653 0 10.421 0 9.056c0-1.38.31-2.625.928-3.73.619-1.107 1.45-2.044 2.495-2.813C4.467 1.744 5.69 1.15 7.092.736 8.494.32 9.978.112 11.544.112" mask="url(#gkgpiall2b)"/>
                    </g>
                    <path fill="#FEFEFE" d="M28.423 10.827h4.396l-2.156-4.89-2.24 4.89zM34.492 1l7.402 15.673c.057.124.18.299.369.524.188.225.434.493.737.803h-8.168c.189-.217.322-.396.397-.536.076-.14.114-.279.114-.419 0-.108-.02-.233-.057-.372-.038-.14-.076-.24-.113-.303l-1.106-2.399h-6.92l-1.021 2.376c-.02.046-.043.143-.071.29-.028.148-.043.284-.043.408 0 .326.16.645.482.955H20c.133-.124.25-.233.354-.326.104-.093.199-.19.284-.291.085-.1.175-.221.27-.361.094-.14.188-.31.283-.512l6.211-12.948c.17-.342.316-.652.44-.932.122-.28.184-.489.184-.629 0-.077-.024-.166-.071-.267-.047-.101-.1-.198-.156-.292-.057-.093-.113-.178-.17-.256-.057-.077-.095-.14-.114-.186h6.977zM51.356 1c-.246.295-.426.64-.54 1.036-.115.396-.172.789-.172 1.176V14.39h4.878c.439 0 .878-.046 1.318-.14.44-.092.826-.247 1.16-.465V18H44c.246-.295.426-.64.54-1.036.115-.396.172-.788.172-1.176V3.212c0-.387-.057-.78-.171-1.176-.115-.396-.295-.74-.541-1.036h7.356zM68.356 1c-.246.295-.426.64-.54 1.036-.115.396-.172.789-.172 1.176V14.39h4.878c.439 0 .878-.046 1.318-.14.44-.092.826-.247 1.16-.465V18H61c.246-.295.426-.64.54-1.036.115-.396.172-.788.172-1.176V3.212c0-.387-.057-.78-.171-1.176-.115-.396-.295-.74-.541-1.036h7.356zM92.445 1v4.215c-.332-.217-.702-.372-1.109-.466-.406-.093-.822-.14-1.247-.14h-5.102v2.935h4.104c.461 0 .924-.047 1.386-.14.462-.093.869-.248 1.22-.466v4.821c-.37-.217-.781-.373-1.234-.466-.453-.093-.91-.14-1.372-.14h-4.104v3.237h5.13c.517 0 1.03-.046 1.538-.14.509-.092.957-.247 1.345-.465V18H78c.259-.295.448-.64.568-1.036.12-.396.18-.788.18-1.176V3.212c0-.387-.06-.78-.18-1.176-.12-.396-.31-.74-.568-1.036h14.445zM101.119 8.336h.762c.81 0 1.502-.016 2.077-.047.574-.03 1.05-.105 1.426-.221.377-.117.654-.291.834-.524.178-.233.268-.551.268-.955 0-.341-.047-.64-.141-.896-.095-.257-.269-.462-.523-.618-.254-.155-.617-.271-1.088-.349-.47-.077-1.083-.116-1.836-.116h-1.78v3.726zM104.085 1c1.186 0 2.311.062 3.375.186 1.064.125 1.996.381 2.797.769.8.388 1.431.931 1.893 1.63.461.699.692 1.63.692 2.795 0 .993-.325 1.859-.975 2.596-.65.738-1.483 1.27-2.5 1.595l3.305 5.752.396.652c.094.156.183.284.268.384.085.102.174.195.269.28L114 18h-7.373l-3.023-6.055h-2.485v3.843c0 .388.06.78.183 1.176.123.395.315.741.58 1.036H94c.263-.295.456-.64.58-1.036.121-.396.183-.788.183-1.176V3.212c0-.387-.062-.78-.184-1.176-.123-.396-.316-.74-.579-1.036h10.085zM121.413 1c-.213.249-.343.42-.39.512-.049.094-.073.187-.073.28 0 .217.125.535.376.955l3.324 5.915 3.527-5.869c.29-.48.434-.822.434-1.024 0-.109-.039-.237-.116-.385-.077-.147-.173-.275-.289-.384H135c-.27.233-.491.435-.665.606-.173.17-.332.337-.477.5-.144.163-.289.354-.434.57-.144.218-.323.49-.534.816l-5.869 9.175v3.12c0 .389.062.78.188 1.177.125.396.322.741.593 1.036h-8.066c.27-.295.467-.64.593-1.036.125-.396.187-.788.187-1.176v-3.12L114.388 2.63c-.174-.28-.357-.543-.55-.792-.193-.248-.472-.527-.838-.838h8.413zM147.226 3.212c0-.387.062-.78.186-1.176.124-.396.32-.74.588-1.036h-8c.268.295.463.64.588 1.036.124.396.186.789.186 1.176v12.576c0 .388-.062.78-.186 1.176-.125.395-.32.741-.588 1.036h8c-.268-.295-.464-.64-.588-1.036-.124-.396-.186-.788-.186-1.176V3.212z" transform="translate(-1077.000000, -3145.000000) translate(0.000000, 3067.000000) translate(1077.000000, 78.000000)"/>
                    <g transform="translate(-1077.000000, -3145.000000) translate(0.000000, 3067.000000) translate(1077.000000, 78.000000) translate(190.000000, 1.000000)">
                        <mask id="83u8x55rmd" fill="#fff">
                            <use xlink:href="#wva6cymjoc"/>
                        </mask>
                        <path fill="#FEFEFE" d="M7.2 14.708V2.282c0-.384.06-.771.184-1.163.123-.39.316-.732.582-1.024H.046C.31.387.503.728.626 1.12c.123.392.185.78.185 1.163v12.426c0 .384-.062.771-.185 1.162-.123.391-.317.733-.582 1.024h7.92c-.265-.29-.458-.633-.581-1.024-.124-.391-.185-.778-.185-1.162" mask="url(#83u8x55rmd)"/>
                    </g>
                    <path fill="#FEFEFE" d="M148 7.702v3.596c14.333 5.896 28.667-5.897 43 0V7.702c-14.333-5.896-28.667 5.897-43 0" transform="translate(-1077.000000, -3145.000000) translate(0.000000, 3067.000000) translate(1077.000000, 78.000000)"/>
                </g>
            </g>
        </g>
    </g>
</svg>
