<svg xmlns="http://www.w3.org/2000/svg" xmlns:xlink="http://www.w3.org/1999/xlink" width="308" height="18" viewBox="0 0 308 18">
    <defs>
        <path id="bzcv1556ja" d="M0 0.339L12.593 0.339 12.593 16 0 16z"/>
    </defs>
    <g fill="none" fill-rule="evenodd">
        <g>
            <g>
                <g>
                    <text fill="#FFF" font-family="HelveticaNeueLTStd-BlkEx, Helvetica Neue LT Std" font-size="22" font-style="expanded" font-weight="800" transform="translate(-165.000000, -3144.000000) translate(0.000000, 3067.000000) translate(165.000000, 74.000000)">
                        <tspan x="39" y="16">ART&amp;ECONOMICS</tspan>
                    </text>
                    <g>
                        <path fill="#FFF" d="M13 0L14.317 4 20 4 18.385 0zM12.161 9.419L12.358 10 23 10 21.335 6 11 6zM9 12L9.709 14.057 10.397 16 26 16 24.351 12z" transform="translate(-165.000000, -3144.000000) translate(0.000000, 3067.000000) translate(165.000000, 74.000000) translate(0.000000, 4.000000)"/>
                        <g transform="translate(-165.000000, -3144.000000) translate(0.000000, 3067.000000) translate(165.000000, 74.000000) translate(0.000000, 4.000000)">
                            <mask id="z0yz8zojmb" fill="#fff">
                                <use xlink:href="#bzcv1556ja"/>
                            </mask>
                            <path fill="#FFF" d="M7.517 14.745c.018-.122.034-.206.048-.252l.108-.291 1.38-3.815.263-.747 1.607-4.559 1.67-4.736h-2.247l.002-.006h-4.14c.013.043.041.1.083.172.041.07.082.15.124.235.041.086.079.176.112.269.033.092.05.175.048.246-.004.129-.057.322-.159.58-.101.257-.22.543-.36.858L4.165 7.118.694 15.146c-.067.109-.13.205-.188.285-.068.094-.143.183-.226.268L0 16H7.863c-.25-.286-.375-.579-.376-.88-.001-.113.008-.239.03-.375" mask="url(#z0yz8zojmb)"/>
                        </g>
                    </g>
                </g>
            </g>
        </g>
    </g>
</svg>
