<svg xmlns="http://www.w3.org/2000/svg" xmlns:xlink="http://www.w3.org/1999/xlink" width="31" height="20" viewBox="0 0 31 20">
    <defs>
        <path id="n5uva0mroa" d="M0 0.423L15.499 0.423 15.499 20 0 20z"/>
    </defs>
    <g fill="none" fill-rule="evenodd">
        <g>
            <g>
                <path fill="#C8C9C9" d="M15.499 1.008L17.155 5.777 24.298 5.777 22.268 1.008zM14.296 12.627L14.537 13.32 27.51 13.32 25.48 8.552 12.881 8.552zM10.291 15.952L11.138 18.33 11.96 20.577 30.6 20.577 28.63 15.952z" transform="translate(-1365.000000, -52.000000) translate(1365.000000, 51.000000)"/>
                <g transform="translate(-1365.000000, -52.000000) translate(1365.000000, 51.000000) translate(0.000000, 0.576700)">
                    <mask id="xvvckyn52b" fill="#fff">
                        <use xlink:href="#n5uva0mroa"/>
                    </mask>
                    <path fill="#C8C9C9" d="M9.251 18.431c.023-.153.042-.257.06-.315l.132-.364 1.7-4.768.323-.934 1.978-5.699L15.5.431h-2.766l.003-.008H7.641c.016.053.05.125.101.215.051.09.102.188.153.294.051.108.097.22.138.336.041.116.061.22.06.308-.006.161-.07.402-.196.724-.125.322-.272.68-.444 1.073L5.126 8.897.854 18.932c-.082.136-.159.256-.23.357-.085.117-.178.228-.279.335-.1.108-.216.233-.345.376h9.678c-.308-.358-.462-.724-.464-1.1 0-.142.011-.299.037-.469" mask="url(#xvvckyn52b)"/>
                </g>
            </g>
        </g>
    </g>
</svg>
