<svg xmlns="http://www.w3.org/2000/svg" xmlns:xlink="http://www.w3.org/1999/xlink" width="275" height="41" viewBox="0 0 275 41">
    <defs>
        <path id="brrxh2rxfa" d="M0 41L274.623 41 274.623 0.138 0 0.138z"/>
    </defs>
    <g fill="none" fill-rule="evenodd">
        <g>
            <g>
                <path fill="#C8C9C9" d="M32 .794L35.386 10.794 50 10.794 45.847.794zM28.901 24.339L29.394 25.794 56 25.794 51.836 15.794 26 15.794zM63 40.794L59.025 31.794 22 31.794 23.71 36.421 25.37 40.794z" transform="translate(-40.000000, -30.000000) translate(40.000000, 29.206325)"/>
                <g transform="translate(-40.000000, -30.000000) translate(40.000000, 29.206325) translate(0.000000, 0.793675)">
                    <path fill="#C8C9C9" d="M18.963 37.18c.048-.315.088-.528.122-.649l.273-.746 3.483-9.801.664-1.92 4.055-11.712L31.772.184h-5.67l.007-.017H15.663c.034.11.103.257.208.44.105.185.21.386.313.607.105.22.198.45.284.689.084.239.125.45.12.634-.01.33-.142.826-.398 1.488-.257.662-.56 1.397-.912 2.205l-4.769 11.353-8.76 20.627c-.165.28-.323.525-.473.734-.17.239-.361.468-.568.689-.207.22-.443.478-.708.771h19.837c-.628-.734-.944-1.488-.95-2.26-.001-.293.024-.615.076-.964M73.877 23.393L91.913 23.393 91.913 27.538 80.578 27.538 80.578 29.825 91.105 29.825 91.105 33.971 80.578 33.971 80.578 36.259 91.913 36.259 91.913 40.405 73.877 40.405zM115.96 33.78c-.428 2.24-1.188 4.05-2.852 5.29-1.639 1.239-4.205 1.93-8.293 1.93-4.063 0-11.595-.286-11.595-9.102 0-8.815 7.532-9.101 11.595-9.101 4.04 0 10.266.524 11.145 7.267h-7.556c-.19-1.215-.998-2.978-3.589-2.978-2.732 0-4.467 1.357-4.467 4.812s1.687 4.813 4.135 4.813c2.114 0 3.374-.881 3.92-2.93h7.557zM129.03 36.711c2.732 0 4.467-1.358 4.467-4.813 0-3.455-1.735-4.812-4.467-4.812-2.733 0-4.468 1.357-4.468 4.812s1.735 4.813 4.468 4.813m0-13.914c4.063 0 11.596.286 11.596 9.101 0 8.816-7.533 9.102-11.596 9.102-4.064 0-11.597-.286-11.597-9.102 0-8.815 7.533-9.101 11.597-9.101M143.002 23.393L150.653 23.393 157.449 32.828 157.521 32.828 157.521 23.393 163.937 23.393 163.937 40.405 156.594 40.405 149.465 30.874 149.418 30.874 149.418 40.405 143.002 40.405zM177.91 36.711c2.732 0 4.466-1.358 4.466-4.813 0-3.455-1.734-4.812-4.467-4.812-2.733 0-4.467 1.357-4.467 4.812s1.734 4.813 4.467 4.813m0-13.914c4.064 0 11.597.286 11.597 9.101 0 8.816-7.533 9.102-11.597 9.102-4.063 0-11.596-.286-11.596-9.102 0-8.815 7.533-9.101 11.596-9.101M191.882 23.393L201.315 23.393 204.096 33.28 204.143 33.28 206.923 23.393 216.357 23.393 216.357 40.405 210.274 40.405 210.274 28.253 210.226 28.253 206.662 40.405 201.577 40.405 198.012 28.253 197.965 28.253 197.965 40.405 191.882 40.405z"/>
                    <mask id="cwrmmnc4fb" fill="#fff">
                        <use xlink:href="#brrxh2rxfa"/>
                    </mask>
                    <path fill="#C8C9C9" d="M219.707 40.404L226.408 40.404 226.408 23.393 219.707 23.393zM251.597 33.78c-.428 2.24-1.188 4.05-2.852 5.29-1.64 1.239-4.206 1.93-8.293 1.93-4.063 0-11.596-.286-11.596-9.102 0-8.815 7.533-9.101 11.596-9.101 4.04 0 10.265.524 11.145 7.267h-7.556c-.19-1.215-.998-2.978-3.589-2.978-2.732 0-4.467 1.357-4.467 4.812s1.687 4.813 4.135 4.813c2.114 0 3.374-.881 3.92-2.93h7.557zM257.775 33.185c-3.279-.5-4.634-2.406-4.634-4.79 0-4.406 4.302-5.598 9.814-5.598 7.557 0 10.67 1.977 10.907 5.575h-7.794c0-.69-.403-1.12-1.021-1.358-.595-.262-1.355-.357-2.092-.357-1.996 0-2.684.5-2.684 1.215 0 .476.213.786.878.882l8.008 1.19c3.375.5 5.466 2.074 5.466 4.957 0 4.145-3.374 6.099-10.907 6.099-5.157 0-10.788-.715-10.812-5.718h8.08c.023.572.237.953.712 1.215.5.238 1.236.357 2.281.357 2.091 0 2.662-.571 2.662-1.382 0-.5-.31-1-1.212-1.143l-7.652-1.144zM80.507 9.988h4.383l-2.149-4.902-2.234 4.902zM86.56.138l7.38 15.709c.057.125.18.3.368.525.188.226.433.495.735.805h-8.144c.189-.217.32-.397.396-.536.075-.14.113-.28.113-.42 0-.11-.019-.234-.057-.374-.037-.14-.075-.241-.112-.303l-1.104-2.405h-6.9l-1.017 2.381c-.02.047-.043.144-.071.292-.028.148-.043.284-.043.408 0 .327.16.647.482.957h-6.476c.132-.124.25-.233.353-.327.104-.093.198-.19.283-.291.085-.101.174-.222.269-.362.093-.14.188-.311.282-.514L79.49 2.706c.17-.343.316-.654.439-.934.122-.28.183-.49.183-.63 0-.078-.024-.167-.07-.269-.048-.1-.1-.198-.156-.292-.057-.093-.113-.178-.17-.256-.056-.078-.094-.14-.113-.187h6.957zM102.637 7.49h.764c.81 0 2.207-.015 2.783-.046.575-.031 1.05-.105 1.427-.222s.655-.292.835-.525c.179-.234.268-.552.268-.957 0-.343-.047-.642-.141-.9-.094-.255-.269-.462-.523-.618-.255-.155-.618-.271-1.089-.35-.471-.077-1.788-.116-2.542-.116h-1.782v3.735zm3.674-7.352c1.187 0 2.314.062 3.38.187 1.064.124 1.997.38 2.799.77.8.39 1.432.934 1.894 1.634.462.7.693 1.634.693 2.8 0 .997-.325 1.864-.975 2.604-.65.739-1.485 1.272-2.503 1.598l3.308 5.766.396.654c.094.155.184.284.269.384.085.102.174.195.269.28l.396.362h-7.38l-3.027-6.069h-3.193v3.852c0 .389.061.782.184 1.178.123.397.315.744.58 1.04h-7.89c.264-.296.457-.643.58-1.04.122-.396.184-.79.184-1.178V2.355c0-.389-.062-.782-.184-1.178-.123-.398-.316-.743-.58-1.04h10.8zM134.066.138v4.225c-.377-.218-.796-.374-1.258-.467-.462-.093-.929-.14-1.4-.14h-3.167V14.96c0 .389.061.782.184 1.179s.315.743.58 1.038h-7.89c.264-.295.457-.641.58-1.038.122-.397.184-.79.184-1.179V3.756h-3.168c-.471 0-.942.047-1.413.14-.472.093-.887.25-1.245.467V.138h18.013zM273.192.167L140.113.167 141.55 4.317 273.192 4.317zM273.192 6.733L140.113 6.733 141.341 10.28 141.55 10.884 273.192 10.884zM140.113 13.174L140.849 15.244 141.563 17.2 273.192 17.2 273.192 13.174z" mask="url(#cwrmmnc4fb)"/>
                </g>
            </g>
        </g>
    </g>
</svg>
